<svg xmlns="http://www.w3.org/2000/svg" viewBox="0 0 280 60" fill="none">
  <defs>
    <linearGradient id="brandGrad" x1="0%" y1="0%" x2="100%" y2="100%">
      <stop offset="0%" stop-color="#F1379D"/>
      <stop offset="100%" stop-color="#722ed1"/>
    </linearGradient>
  </defs>
  <!-- Paw Icon Mark -->
  <g transform="translate(0, 4)">
    <!-- Paw pads -->
    <ellipse cx="16" cy="10" rx="4.5" ry="5.5" fill="url(#brandGrad)"/>
    <ellipse cx="30" cy="10" rx="4.5" ry="5.5" fill="url(#brandGrad)"/>
    <ellipse cx="8" cy="22" rx="3.8" ry="5" fill="url(#brandGrad)"/>
    <ellipse cx="38" cy="22" rx="3.8" ry="5" fill="url(#brandGrad)"/>
    <!-- Main pad -->
    <path d="M23 24c-5.5 0-10 3.5-12 8-2.5 5.5 1 11 6.5 12.5 1.8.5 3.5 1.8 5.5 1.8s3.7-1.3 5.5-1.8c5.5-1.5 9-7 6.5-12.5-2-4.5-6.5-8-12-8z" fill="url(#brandGrad)"/>
  </g>
  <!-- Wordmark -->
  <text x="52" y="42" font-family="Poppins, -apple-system, sans-serif" font-size="34" font-weight="700" fill="#1a1a1a">
    <tspan fill="url(#brandGrad)">Pet</tspan><tspan fill="#1a1a1a">folioo</tspan>
  </text>
</svg>
