<svg xmlns="http://www.w3.org/2000/svg" viewBox="0 0 64 64" fill="none">
  <defs>
    <linearGradient id="pawGrad" x1="0%" y1="0%" x2="100%" y2="100%">
      <stop offset="0%" stop-color="#F1379D"/>
      <stop offset="100%" stop-color="#722ed1"/>
    </linearGradient>
  </defs>
  <circle cx="32" cy="32" r="30" fill="url(#pawGrad)"/>
  <g fill="white" transform="translate(14, 12) scale(0.75)">
    <ellipse cx="14" cy="8" rx="5" ry="6.5"/>
    <ellipse cx="34" cy="8" rx="5" ry="6.5"/>
    <ellipse cx="6" cy="22" rx="4.2" ry="5.5"/>
    <ellipse cx="42" cy="22" rx="4.2" ry="5.5"/>
    <path d="M24 24c-6 0-11 4-13 9-2.8 6 1 12 7 13.5 2 .6 4 2 6 2s4-1.4 6-2c6-1.5 9.8-7.5 7-13.5-2-5-7-9-13-9z"/>
  </g>
</svg>
