<svg xmlns="http://www.w3.org/2000/svg" viewBox="0 0 64 64" fill="none">
  <defs>
    <linearGradient id="pawGrad" x1="0%" y1="0%" x2="100%" y2="100%">
      <stop offset="0%" stop-color="#F1379D"/>
      <stop offset="100%" stop-color="#722ed1"/>
    </linearGradient>
  </defs>
  <circle cx="32" cy="32" r="30" fill="url(#pawGrad)"/>
  <g fill="white" transform="translate(12, 10) scale(1.7)">
    <ellipse cx="7.5" cy="5" rx="2.5" ry="3"/>
    <ellipse cx="16.5" cy="5" rx="2.5" ry="3"/>
    <ellipse cx="4" cy="11" rx="2" ry="2.8"/>
    <ellipse cx="20" cy="11" rx="2" ry="2.8"/>
    <path d="M12 12c-3 0-5.5 2-6.5 4.5C4.5 19 6 22 9 23c1 .3 2 1 3 1s2-.7 3-1c3-1 4.5-4 3.5-6.5C17.5 14 15 12 12 12z"/>
  </g>
</svg>
